# Blender 4.0.2
# www.blender.org
mtllib catball.mtl
o Cube
v 1.106720 0.493047 -0.299561
v 0.735821 -0.511363 -0.416562
v 0.712019 0.529180 0.741965
v 0.509643 -0.442960 0.660384
v -0.024719 0.616669 -0.521938
v -0.327481 -0.447734 -0.562402
v -0.328375 0.588980 0.583836
v -0.462614 -0.443153 0.578792
v -0.446509 -0.522244 -0.339393
v -0.527244 -0.559695 -0.003097
v -0.520040 -0.520334 0.340228
v 0.503709 -0.577494 -0.534012
v 0.178996 -0.598428 -0.621321
v -0.127734 -0.539645 -0.620225
v 1.139590 0.275990 -0.383919
v 1.079877 -0.028196 -0.450874
v 0.913479 -0.319217 -0.456200
v -0.519094 -0.234107 0.656274
v -0.525438 0.071860 0.694352
v -0.445506 0.378966 0.656401
v 0.717745 0.333768 0.810069
v 0.682722 0.048625 0.827292
v 0.600245 -0.240641 0.760615
v -0.151623 0.410889 -0.627886
v -0.276653 0.099045 -0.688514
v -0.333821 -0.222982 -0.650841
v 0.482178 0.613868 0.790422
v 0.163943 0.667801 0.783589
v -0.134501 0.649249 0.696290
v 1.131821 0.563674 -0.063198
v 1.063017 0.606478 0.256588
v 0.891002 0.585919 0.552189
v -0.283527 -0.514207 0.675921
v -0.006658 -0.547316 0.738055
v 0.289239 -0.510924 0.720727
v -0.332818 0.678229 0.344953
v -0.274847 0.730600 0.008935
v -0.150677 0.697116 -0.311841
v 0.258147 0.669167 -0.550074
v 0.624227 0.669277 -0.518066
v 0.933503 0.592653 -0.414535
v 0.608014 -0.528325 0.439894
v 0.699582 -0.586050 0.119831
v 0.740223 -0.571368 -0.198320
v 0.905168 0.752237 -0.124625
v 0.573049 0.846204 -0.210382
v 0.192157 0.830748 -0.268268
v 0.807090 0.806584 0.215343
v 0.452160 0.902678 0.146793
v 0.068095 0.881310 0.071204
v 0.641304 0.760076 0.537757
v 0.302136 0.841690 0.496928
v -0.041640 0.817510 0.415331
v 0.312771 -0.250634 0.906639
v 0.357919 0.061066 0.981458
v 0.402405 0.367755 0.940770
v -0.003932 -0.266440 0.938413
v 0.017728 0.064923 1.011768
v 0.069946 0.393938 0.959229
v -0.297143 -0.252315 0.854177
v -0.291905 0.066432 0.916184
v -0.230011 0.385887 0.863032
v -0.637946 -0.249884 0.347409
v -0.644991 0.084989 0.358310
v -0.538950 0.417604 0.343213
v -0.647294 -0.259948 -0.022154
v -0.642906 0.099643 -0.032028
v -0.517182 0.452114 -0.024370
v -0.542196 -0.237288 -0.379525
v -0.519484 0.107178 -0.404834
v -0.387545 0.440858 -0.372023
v -0.224524 -0.698392 -0.337397
v 0.083714 -0.764101 -0.325642
v 0.422728 -0.719004 -0.267618
v -0.288667 -0.744524 0.018660
v 0.028094 -0.807012 0.044336
v 0.373989 -0.752036 0.077050
v -0.295682 -0.680487 0.380386
v 0.001609 -0.732460 0.421352
v 0.321504 -0.680022 0.428947
v 1.002430 -0.329114 -0.163863
v 1.176247 -0.025075 -0.131190
v 1.222839 0.291133 -0.082497
v 0.959266 -0.322840 0.172624
v 1.123159 -0.003976 0.223156
v 1.165717 0.322007 0.256157
v 0.818814 -0.280116 0.501065
v 0.948736 0.024241 0.559971
v 0.983569 0.329474 0.570734
v -0.036153 -0.266769 -0.785098
v 0.071332 0.070353 -0.826320
v 0.193619 0.402576 -0.742059
v 0.315903 -0.316348 -0.787942
v 0.462526 0.030744 -0.820639
v 0.578589 0.380184 -0.727443
v 0.661627 -0.326683 -0.670631
v 0.823160 -0.006518 -0.689065
v 0.913901 0.322850 -0.602316
vn 0.2795 0.9580 -0.0645
vn -0.0198 0.9871 -0.1586
vn 0.2036 0.9474 0.2470
vn -0.0925 0.9855 0.1425
vn 0.6416 0.7042 -0.3041
vn 0.3476 0.8360 -0.4245
vn 0.0410 0.8700 -0.4914
vn -0.2353 0.8326 -0.5015
vn -0.3392 0.9087 -0.2432
vn -0.4240 0.9043 0.0499
vn -0.4627 0.8232 0.3291
vn -0.1775 0.8731 0.4540
vn 0.1287 0.8201 0.5576
vn 0.4066 0.6720 0.6190
vn 0.5259 0.7656 0.3705
vn 0.6213 0.7825 0.0419
vn 0.0957 -0.2329 0.9678
vn 0.0776 0.1331 0.9881
vn -0.2853 -0.1840 0.9406
vn -0.2958 0.2041 0.9332
vn 0.3852 -0.5523 0.7393
vn 0.4202 -0.2916 0.8593
vn 0.4084 0.0344 0.9122
vn 0.3613 0.3641 0.8584
vn 0.0782 0.5107 0.8562
vn -0.2618 0.5827 0.7694
vn -0.5645 0.5601 0.6063
vn -0.6683 0.2530 0.6995
vn -0.6762 -0.1177 0.7272
vn -0.5919 -0.4509 0.6681
vn -0.2495 -0.5574 0.7919
vn 0.1141 -0.5808 0.8060
vn -0.9999 -0.0038 0.0095
vn -0.9473 0.3204 -0.0090
vn -0.9544 0.0219 -0.2978
vn -0.8832 0.3501 -0.3120
vn -0.8624 -0.3739 0.3412
vn -0.9369 -0.0461 0.3465
vn -0.9026 0.2889 0.3192
vn -0.7743 0.5724 0.2699
vn -0.7685 0.6398 -0.0081
vn -0.6826 0.6648 -0.3037
vn -0.5370 0.6261 -0.5654
vn -0.6838 0.3638 -0.6325
vn -0.7757 0.0334 -0.6302
vn -0.7708 -0.2965 -0.5638
vn -0.8940 -0.3572 -0.2705
vn -0.9222 -0.3838 0.0480
vn -0.1900 -0.9702 -0.1503
vn 0.1547 -0.9845 -0.0820
vn -0.1985 -0.9649 0.1720
vn 0.1433 -0.9671 0.2100
vn -0.5038 -0.6824 -0.5296
vn -0.1604 -0.8372 -0.5228
vn 0.1816 -0.8858 -0.4271
vn 0.4305 -0.8555 -0.2877
vn 0.4391 -0.8984 -0.0055
vn 0.4270 -0.8664 0.2588
vn 0.3867 -0.7828 0.4875
vn 0.1310 -0.8529 0.5053
vn -0.2130 -0.8468 0.4874
vn -0.5544 -0.7276 0.4039
vn -0.6034 -0.7890 0.1159
vn -0.5951 -0.7736 -0.2179
vn 0.8626 -0.4863 0.1395
vn 0.9736 -0.1563 0.1666
vn 0.7896 -0.4462 0.4213
vn 0.8654 -0.1395 0.4813
vn 0.6841 -0.6953 -0.2203
vn 0.8451 -0.4665 -0.2611
vn 0.9554 -0.1128 -0.2730
vn 0.9300 0.2846 -0.2328
vn 0.9363 0.3206 0.1432
vn 0.8189 0.3117 0.4820
vn 0.6500 0.2771 0.7076
vn 0.6858 -0.0732 0.7241
vn 0.6596 -0.3739 0.6520
vn 0.5930 -0.5922 0.5455
vn 0.6536 -0.6768 0.3387
vn 0.6867 -0.7226 0.0786
vn -0.0087 -0.1042 -0.9945
vn 0.0443 0.2371 -0.9705
vn 0.3117 -0.2149 -0.9256
vn 0.3590 0.1354 -0.9235
vn -0.4194 -0.3538 -0.8361
vn -0.3895 -0.0129 -0.9209
vn -0.3085 0.3200 -0.8958
vn -0.2184 0.5824 -0.7830
vn 0.0677 0.5753 -0.8151
vn 0.3799 0.5060 -0.7744
vn 0.6716 0.3754 -0.6388
vn 0.6883 0.0125 -0.7253
vn 0.6181 -0.3468 -0.7054
vn 0.5053 -0.6212 -0.5991
vn 0.2464 -0.5787 -0.7774
vn -0.0850 -0.4849 -0.8704
vt 0.577176 0.724139
vt 0.589403 0.785909
vt 0.561950 0.798136
vt 0.549723 0.736367
vt 0.601630 0.847678
vt 0.574177 0.859905
vt 0.534497 0.810363
vt 0.522270 0.748594
vt 0.546724 0.872132
vt 0.592402 0.650143
vt 0.604629 0.711912
vt 0.564949 0.662370
vt 0.616856 0.773681
vt 0.629083 0.835451
vt 0.641310 0.897220
vt 0.613858 0.909447
vt 0.586405 0.921674
vt 0.558952 0.933901
vt 0.531499 0.946128
vt 0.519272 0.884359
vt 0.507044 0.822590
vt 0.494817 0.760821
vt 0.510043 0.686825
vt 0.482590 0.699052
vt 0.537496 0.674597
vt 0.371067 0.577073
vt 0.413729 0.645585
vt 0.383279 0.688247
vt 0.340617 0.619735
vt 0.456392 0.714097
vt 0.425942 0.756759
vt 0.352830 0.730909
vt 0.310167 0.662397
vt 0.395492 0.799421
vt 0.358854 0.465898
vt 0.401517 0.534410
vt 0.328405 0.508561
vt 0.444179 0.602922
vt 0.486841 0.671434
vt 0.529504 0.739946
vt 0.499054 0.782609
vt 0.468604 0.825271
vt 0.438154 0.867933
vt 0.407705 0.910596
vt 0.365042 0.842084
vt 0.322380 0.773572
vt 0.279718 0.705060
vt 0.267505 0.593885
vt 0.237055 0.636548
vt 0.297955 0.551223
vt 0.154777 0.782277
vt 0.217277 0.782277
vt 0.217277 0.844778
vt 0.154777 0.844778
vt 0.279777 0.782277
vt 0.279777 0.844777
vt 0.217277 0.907277
vt 0.154777 0.907277
vt 0.279777 0.907277
vt 0.092277 0.719777
vt 0.154777 0.719778
vt 0.092277 0.782278
vt 0.217277 0.719778
vt 0.279777 0.719778
vt 0.342277 0.719777
vt 0.342277 0.782278
vt 0.342277 0.844777
vt 0.342277 0.907278
vt 0.342277 0.969778
vt 0.279777 0.969777
vt 0.217277 0.969777
vt 0.154777 0.969777
vt 0.092277 0.907278
vt 0.092277 0.969778
vt 0.092277 0.844777
vt 0.053642 0.121822
vt 0.116053 0.126832
vt 0.113826 0.189243
vt 0.051415 0.184233
vt 0.178463 0.131842
vt 0.176237 0.194253
vt 0.111599 0.251654
vt 0.049189 0.246644
vt 0.174010 0.256664
vt -0.006542 0.054402
vt 0.055869 0.059412
vt -0.008769 0.116812
vt 0.118279 0.064421
vt 0.180690 0.069431
vt 0.243101 0.074441
vt 0.240874 0.136852
vt 0.238647 0.199263
vt 0.236421 0.261674
vt 0.234194 0.324084
vt 0.171783 0.319074
vt 0.109373 0.314064
vt 0.046962 0.309054
vt -0.013222 0.241634
vt -0.015449 0.304044
vt -0.010995 0.179223
vt 0.579227 0.417395
vt 0.578679 0.518554
vt 0.533720 0.518006
vt 0.534267 0.416847
vt 0.578132 0.619713
vt 0.533172 0.619165
vt 0.488760 0.517459
vt 0.489308 0.416299
vt 0.488212 0.618618
vt 0.624734 0.316783
vt 0.624187 0.417942
vt 0.579774 0.316235
vt 0.623639 0.519101
vt 0.623091 0.620261
vt 0.622544 0.721420
vt 0.577584 0.720872
vt 0.532624 0.720325
vt 0.487665 0.719777
vt 0.442705 0.719229
vt 0.443253 0.618070
vt 0.443800 0.516911
vt 0.444348 0.415752
vt 0.489855 0.315140
vt 0.444896 0.314593
vt 0.534815 0.315688
vt 0.727503 0.389777
vt 0.739338 0.481831
vt 0.698425 0.493666
vt 0.686590 0.401612
vt 0.751173 0.573884
vt 0.710261 0.585720
vt 0.657512 0.505501
vt 0.645677 0.413448
vt 0.669348 0.597555
vt 0.756580 0.285888
vt 0.768416 0.377942
vt 0.715667 0.297723
vt 0.780251 0.469995
vt 0.792086 0.562049
vt 0.803922 0.654103
vt 0.763009 0.665938
vt 0.722096 0.677774
vt 0.681183 0.689609
vt 0.640270 0.701444
vt 0.628435 0.609390
vt 0.616600 0.517337
vt 0.604764 0.425283
vt 0.633842 0.321394
vt 0.592929 0.333229
vt 0.674755 0.309559
s 0
usemtl mat
f 45/1/1 46/2/1 49/3/1 48/4/1
f 46/2/2 47/5/2 50/6/2 49/3/2
f 48/4/3 49/3/3 52/7/3 51/8/3
f 49/3/4 50/6/4 53/9/4 52/7/4
f 1/10/5 41/11/5 45/1/5 30/12/5
f 41/11/6 40/13/6 46/2/6 45/1/6
f 40/13/7 39/14/7 47/5/7 46/2/7
f 39/14/8 5/15/8 38/16/8 47/5/8
f 47/5/9 38/16/9 37/17/9 50/6/9
f 50/6/10 37/17/10 36/18/10 53/9/10
f 53/9/11 36/18/11 7/19/11 29/20/11
f 52/7/12 53/9/12 29/20/12 28/21/12
f 51/8/13 52/7/13 28/21/13 27/22/13
f 32/23/14 51/8/14 27/22/14 3/24/14
f 31/25/15 48/4/15 51/8/15 32/23/15
f 30/12/16 45/1/16 48/4/16 31/25/16
f 54/26/17 55/27/17 58/28/17 57/29/17
f 55/27/18 56/30/18 59/31/18 58/28/18
f 57/29/19 58/28/19 61/32/19 60/33/19
f 58/28/20 59/31/20 62/34/20 61/32/20
f 4/35/21 23/36/21 54/26/21 35/37/21
f 23/36/22 22/38/22 55/27/22 54/26/22
f 22/38/23 21/39/23 56/30/23 55/27/23
f 21/39/24 3/40/24 27/41/24 56/30/24
f 56/30/25 27/41/25 28/42/25 59/31/25
f 59/31/26 28/42/26 29/43/26 62/34/26
f 62/34/27 29/43/27 7/44/27 20/45/27
f 61/32/28 62/34/28 20/45/28 19/46/28
f 60/33/29 61/32/29 19/46/29 18/47/29
f 33/48/30 60/33/30 18/47/30 8/49/30
f 34/50/31 57/29/31 60/33/31 33/48/31
f 35/37/32 54/26/32 57/29/32 34/50/32
f 63/51/33 64/52/33 67/53/33 66/54/33
f 64/52/34 65/55/34 68/56/34 67/53/34
f 66/54/35 67/53/35 70/57/35 69/58/35
f 67/53/36 68/56/36 71/59/36 70/57/36
f 8/60/37 18/61/37 63/51/37 11/62/37
f 18/61/38 19/63/38 64/52/38 63/51/38
f 19/63/39 20/64/39 65/55/39 64/52/39
f 20/64/40 7/65/40 36/66/40 65/55/40
f 65/55/41 36/66/41 37/67/41 68/56/41
f 68/56/42 37/67/42 38/68/42 71/59/42
f 71/59/43 38/68/43 5/69/43 24/70/43
f 70/57/44 71/59/44 24/70/44 25/71/44
f 69/58/45 70/57/45 25/71/45 26/72/45
f 9/73/46 69/58/46 26/72/46 6/74/46
f 10/75/47 66/54/47 69/58/47 9/73/47
f 11/62/48 63/51/48 66/54/48 10/75/48
f 72/76/49 73/77/49 76/78/49 75/79/49
f 73/77/50 74/80/50 77/81/50 76/78/50
f 75/79/51 76/78/51 79/82/51 78/83/51
f 76/78/52 77/81/52 80/84/52 79/82/52
f 6/85/53 14/86/53 72/76/53 9/87/53
f 14/86/54 13/88/54 73/77/54 72/76/54
f 13/88/55 12/89/55 74/80/55 73/77/55
f 12/89/56 2/90/56 44/91/56 74/80/56
f 74/80/57 44/91/57 43/92/57 77/81/57
f 77/81/58 43/92/58 42/93/58 80/84/58
f 80/84/59 42/93/59 4/94/59 35/95/59
f 79/82/60 80/84/60 35/95/60 34/96/60
f 78/83/61 79/82/61 34/96/61 33/97/61
f 11/98/62 78/83/62 33/97/62 8/99/62
f 10/100/63 75/79/63 78/83/63 11/98/63
f 9/87/64 72/76/64 75/79/64 10/100/64
f 81/101/65 82/102/65 85/103/65 84/104/65
f 82/102/66 83/105/66 86/106/66 85/103/66
f 84/104/67 85/103/67 88/107/67 87/108/67
f 85/103/68 86/106/68 89/109/68 88/107/68
f 2/110/69 17/111/69 81/101/69 44/112/69
f 17/111/70 16/113/70 82/102/70 81/101/70
f 16/113/71 15/114/71 83/105/71 82/102/71
f 15/114/72 1/115/72 30/116/72 83/105/72
f 83/105/73 30/116/73 31/117/73 86/106/73
f 86/106/74 31/117/74 32/118/74 89/109/74
f 89/109/75 32/118/75 3/119/75 21/120/75
f 88/107/76 89/109/76 21/120/76 22/121/76
f 87/108/77 88/107/77 22/121/77 23/122/77
f 42/123/78 87/108/78 23/122/78 4/124/78
f 43/125/79 84/104/79 87/108/79 42/123/79
f 44/112/80 81/101/80 84/104/80 43/125/80
f 90/126/81 91/127/81 94/128/81 93/129/81
f 91/127/82 92/130/82 95/131/82 94/128/82
f 93/129/83 94/128/83 97/132/83 96/133/83
f 94/128/84 95/131/84 98/134/84 97/132/84
f 6/135/85 26/136/85 90/126/85 14/137/85
f 26/136/86 25/138/86 91/127/86 90/126/86
f 25/138/87 24/139/87 92/130/87 91/127/87
f 24/139/88 5/140/88 39/141/88 92/130/88
f 92/130/89 39/141/89 40/142/89 95/131/89
f 95/131/90 40/142/90 41/143/90 98/134/90
f 98/134/91 41/143/91 1/144/91 15/145/91
f 97/132/92 98/134/92 15/145/92 16/146/92
f 96/133/93 97/132/93 16/146/93 17/147/93
f 12/148/94 96/133/94 17/147/94 2/149/94
f 13/150/95 93/129/95 96/133/95 12/148/95
f 14/137/96 90/126/96 93/129/96 13/150/96
