# Blender 4.0.2
# www.blender.org
mtllib distorted.mtl
o Cube
v 1.140147 1.219051 -0.806967
v 0.890747 -1.141569 -1.064975
v 1.102064 0.439283 0.503963
v 1.015250 -1.000554 0.973625
v -0.869980 0.719320 -1.409000
v -1.153518 -1.118928 -0.514334
v -0.960558 1.145389 0.924097
v -0.616727 -1.047541 1.177816
vn 0.0460 0.9941 0.0981
vn 0.1985 0.2049 0.9584
vn -0.9940 0.0160 0.1082
vn 0.0176 -0.9984 0.0537
vn 0.9950 -0.0904 -0.0429
vn 0.0306 -0.1536 -0.9877
vt 0.625000 0.500000
vt 0.875000 0.500000
vt 0.875000 0.750000
vt 0.625000 0.750000
vt 0.375000 0.750000
vt 0.625000 1.000000
vt 0.375000 1.000000
vt 0.375000 0.000000
vt 0.625000 0.000000
vt 0.625000 0.250000
vt 0.375000 0.250000
vt 0.125000 0.500000
vt 0.375000 0.500000
vt 0.125000 0.750000
s 0
usemtl Material
f 1/1/1 5/2/1 7/3/1 3/4/1
f 4/5/2 3/4/2 7/6/2 8/7/2
f 8/8/3 7/9/3 5/10/3 6/11/3
f 6/12/4 2/13/4 4/5/4 8/14/4
f 2/13/5 1/1/5 3/4/5 4/5/5
f 6/11/6 5/10/6 1/1/6 2/13/6
