# Blender 4.0.2
# www.blender.org
mtllib floor.mtl
o Cube
v 49.212311 -0.034166 -52.660233
v 49.212311 -0.547507 -52.660233
v 49.212311 -0.034166 52.660233
v 49.212311 -0.547507 52.660233
v -49.212311 -0.034166 -52.660233
v -49.212311 -0.547507 -52.660233
v -49.212311 -0.034166 52.660233
v -49.212311 -0.547507 52.660233
v -49.212311 -0.034166 -52.660233
v -49.212311 -0.547507 -52.660233
v -49.212311 -0.034166 52.660233
v -49.212311 -0.547507 52.660233
vn -0.0000 1.0000 -0.0000
vn -0.0000 -0.0000 1.0000
vn -0.0000 -1.0000 -0.0000
vn 1.0000 -0.0000 -0.0000
vn -0.0000 -0.0000 -1.0000
vn -1.0000 -0.0000 -0.0000
vt 0.477875 0.510966
vt 0.005580 0.510966
vt 0.005580 0.005580
vt 0.477875 0.005580
vt 0.008043 0.994421
vt 0.005580 0.994421
vt 0.005580 0.522125
vt 0.008043 0.522125
vt 0.961330 0.510966
vt 0.489035 0.510966
vt 0.489035 0.005580
vt 0.961330 0.005580
vt 0.974953 0.510966
vt 0.972489 0.510966
vt 0.972489 0.005580
vt 0.974953 0.005580
vt 0.021665 0.994421
vt 0.019202 0.994421
vt 0.019202 0.522125
vt 0.021665 0.522125
vt 0.988575 0.510966
vt 0.986112 0.510966
vt 0.986112 0.005580
vt 0.988575 0.005580
s 0
usemtl Material
f 1/1/1 5/2/1 7/3/1 3/4/1
f 4/5/2 3/6/2 7/7/2 8/8/2
f 6/9/3 2/10/3 4/11/3 8/12/3
f 2/13/4 1/14/4 3/15/4 4/16/4
f 6/17/5 5/18/5 1/19/5 2/20/5
f 12/21/6 11/22/6 9/23/6 10/24/6
