# Blender 4.1.1
# www.blender.org
mtllib yaxis.mtl
o Cube
v -1.040652 -78.013992 1.015964
v -1.040652 59.718250 1.015964
v -1.040652 -78.013992 -0.984036
v -1.040652 59.718250 -0.984036
v 0.959348 -78.013992 1.015964
v 0.959348 59.718250 1.015964
v 0.959348 -78.013992 -0.984036
v 0.959348 59.718250 -0.984036
vn -1.0000 -0.0000 -0.0000
vn -0.0000 -0.0000 -1.0000
vn 1.0000 -0.0000 -0.0000
vn -0.0000 -0.0000 1.0000
vn -0.0000 -1.0000 -0.0000
vn -0.0000 1.0000 -0.0000
vt 0.375000 0.000000
vt 0.625000 0.000000
vt 0.625000 0.250000
vt 0.375000 0.250000
vt 0.625000 0.500000
vt 0.375000 0.500000
vt 0.625000 0.750000
vt 0.375000 0.750000
vt 0.625000 1.000000
vt 0.375000 1.000000
vt 0.125000 0.500000
vt 0.125000 0.750000
vt 0.875000 0.500000
vt 0.875000 0.750000
s 0
f 1/1/1 2/2/1 4/3/1 3/4/1
f 3/4/2 4/3/2 8/5/2 7/6/2
f 7/6/3 8/5/3 6/7/3 5/8/3
f 5/8/4 6/7/4 2/9/4 1/10/4
f 3/11/5 7/6/5 5/8/5 1/12/5
f 8/5/6 4/13/6 2/14/6 6/7/6
o Cube.001
v -1.306268 59.583439 1.775156
v -1.306268 67.808243 1.775156
v -1.306268 59.583439 -1.621908
v -1.306268 67.808243 -1.621908
v 1.392353 59.583439 1.775156
v 1.392353 67.808243 1.775156
v 1.392353 59.583439 -1.621908
v 1.392353 67.808243 -1.621908
vn -1.0000 -0.0000 -0.0000
vn -0.0000 -0.0000 -1.0000
vn 1.0000 -0.0000 -0.0000
vn -0.0000 -0.0000 1.0000
vn -0.0000 -1.0000 -0.0000
vn -0.0000 1.0000 -0.0000
vt 0.375000 0.000000
vt 0.625000 0.000000
vt 0.625000 0.250000
vt 0.375000 0.250000
vt 0.625000 0.500000
vt 0.375000 0.500000
vt 0.625000 0.750000
vt 0.375000 0.750000
vt 0.625000 1.000000
vt 0.375000 1.000000
vt 0.125000 0.500000
vt 0.125000 0.750000
vt 0.875000 0.500000
vt 0.875000 0.750000
s 0
f 9/15/7 10/16/7 12/17/7 11/18/7
f 11/18/8 12/17/8 16/19/8 15/20/8
f 15/20/9 16/19/9 14/21/9 13/22/9
f 13/22/10 14/21/10 10/23/10 9/24/10
f 11/25/11 15/20/11 13/22/11 9/26/11
f 16/19/12 12/27/12 10/28/12 14/21/12
o Cube.002
v -1.427879 66.254936 1.775156
v 2.391800 70.581238 1.775156
v -1.427879 66.254936 -1.621907
v 2.391800 70.581238 -1.621907
v 0.281650 64.974930 1.775156
v 4.101329 69.301231 1.775156
v 0.281650 64.974930 -1.621907
v 4.101329 69.301231 -1.621907
v 1.513963 66.254936 1.775156
v -2.305716 70.581238 1.775156
v 1.513963 66.254936 -1.621907
v -2.305716 70.581238 -1.621907
v -0.195565 64.974930 1.775156
v -4.015244 69.301231 1.775156
v -0.195565 64.974930 -1.621907
v -4.015244 69.301231 -1.621907
vn -0.7496 0.6619 -0.0000
vn -0.0000 -0.0000 -1.0000
vn 0.7496 -0.6619 -0.0000
vn -0.0000 -0.0000 1.0000
vn -0.5994 -0.8005 -0.0000
vn 0.5994 0.8005 -0.0000
vn 0.7496 0.6619 -0.0000
vn -0.7496 -0.6619 -0.0000
vn 0.5994 -0.8005 -0.0000
vn -0.5994 0.8005 -0.0000
vt 0.375000 0.000000
vt 0.625000 0.000000
vt 0.625000 0.250000
vt 0.375000 0.250000
vt 0.625000 0.500000
vt 0.375000 0.500000
vt 0.625000 0.750000
vt 0.375000 0.750000
vt 0.625000 1.000000
vt 0.375000 1.000000
vt 0.125000 0.500000
vt 0.125000 0.750000
vt 0.875000 0.500000
vt 0.875000 0.750000
s 0
f 17/29/13 18/30/13 20/31/13 19/32/13
f 19/32/14 20/31/14 24/33/14 23/34/14
f 23/34/15 24/33/15 22/35/15 21/36/15
f 21/36/16 22/35/16 18/37/16 17/38/16
f 19/39/17 23/34/17 21/36/17 17/40/17
f 24/33/18 20/41/18 18/42/18 22/35/18
f 25/29/19 27/32/19 28/31/19 26/30/19
f 27/32/14 31/34/14 32/33/14 28/31/14
f 31/34/20 29/36/20 30/35/20 32/33/20
f 29/36/16 25/38/16 26/37/16 30/35/16
f 27/39/21 25/40/21 29/36/21 31/34/21
f 32/33/22 30/35/22 26/42/22 28/41/22
